<svg width="32" height="32" viewBox="0 0 100 100" fill="none" xmlns="http://www.w3.org/2000/svg" aria-hidden="true">
  <circle cx="50" cy="50" r="50" fill="#FFB703"></circle>
  <circle cx="35" cy="25" r="11" fill="#2C1503"></circle>
  <circle cx="35" cy="25" r="7.5" fill="white"></circle>
  <circle cx="65" cy="25" r="11" fill="#2C1503"></circle>
  <circle cx="65" cy="25" r="7.5" fill="white"></circle>
  <circle cx="35" cy="75" r="11" fill="#2C1503"></circle>
  <circle cx="35" cy="75" r="7.5" fill="white"></circle>
  <circle cx="65" cy="75" r="11" fill="#2C1503"></circle>
  <circle cx="65" cy="75" r="7.5" fill="white"></circle>
  <rect x="28" y="22" width="44" height="56" rx="6" fill="#2C1503"></rect>
  <rect x="31" y="25" width="38" height="50" rx="4" fill="white"></rect>
  <circle cx="41" cy="40" r="4" fill="#2C1503"></circle>
  <circle cx="59" cy="40" r="4" fill="#2C1503"></circle>
  <ellipse cx="33" cy="50" rx="5" ry="3" fill="#FFB703" opacity="0.6"></ellipse>
  <ellipse cx="67" cy="50" rx="5" ry="3" fill="#FFB703" opacity="0.6"></ellipse>
  <path d="M47 52 Q47 48.5 50 50 Q53 48.5 53 52 Q53 55.5 50 58 Q47 55.5 47 52 Z" fill="#2C1503"></path>
  <ellipse cx="50" cy="62" rx="5" ry="5" fill="#E63946"></ellipse>
  <rect x="45" y="58" width="10" height="5" fill="#E63946"></rect>
</svg>
